<svg xmlns="http://www.w3.org/2000/svg" viewBox="26 30 43 38" width="43" height="30" preserveAspectRatio="xMidYMid meet" color-interpolation-filters="sRGB">
  <g transform="translate(5, 5) scale(0.058)">
    <path fill="#3E3A39" d="M1147.581 576.737l-55.642-90.37c-4.744-8.259-13.502-13.351-22.966-13.351h-97.028c-4.536.125-22.646 2.078-33.861 24.543l-93.82 154.769-92.912-129.974c-12.021-12.492-31.518-12.492-43.549 0l-92.905 129.974-93.815-154.769c-11.207-22.465-29.342-24.418-33.864-24.543h-97.028c-9.464 0-18.223 5.092-22.967 13.351l-55.643 90.37a26.789 26.789 0 0 0 0 26.715l244.414 438.964a26.41 26.41 0 0 0 22.93 13.339h34.8c4.881-.326 15.852-2.643 26.586-15.695l73.064-156.652c8.955-10.888 23.458-10.888 32.404 0l73.074 156.652h.073c10.725 13.053 21.694 15.369 26.587 15.695h34.727a26.415 26.415 0 0 0 22.932-13.339l244.41-438.964a26.801 26.801 0 0 0-.001-26.715z"/>
  </g>
</svg>
