<?xml version="1.0" encoding="utf-8"?>
<svg data-v-0dd9719b="" version="1.0" width="100%" height="100%" viewBox="0 0 340.000000 250.000000" preserveAspectRatio="xMidYMid meet" color-interpolation-filters="sRGB" style="margin: auto;" xmlns="http://www.w3.org/2000/svg">
  <g data-v-0dd9719b="" fill="#6cb433" class="iconlinesvg-g iconlinesvg" transform="translate(67.99508666992188,82.92900466918945)">
    <g class="tp-name" transform="translate(0,0)">
      <g transform="translate(0, 0)">
        <g>
          <g class="imagesvg">
            <g>
              <rect fill="#6cb433" fill-opacity="0" stroke-width="2" x="0" y="0" width="80.24369395985478" height="84.14199247103797" class="image-rect"/>
              <svg x="0" y="0" width="80.24369395985478" height="84.14199247103797" filtersec="colorsb2530321985" class="image-svg-svg primary" style="overflow: visible;">
                <svg xmlns="http://www.w3.org/2000/svg" viewBox="24.861000061035156 12.444000244140625 1453.8909912109375 1524.5169677734375">
                  <path fill="#129B81" d="M862.875 282.853l86.58 149.744 95.866-166.018h-210.65c11.626 0 22.401 6.208 28.204 16.274z"/>
                  <path fill="#00807A" d="M640.824 282.878a32.592 32.592 0 0 1 28.217-16.299H458.403l95.932 166.114 86.489-149.815z"/>
                  <path fill="#007D7F" d="M1122.375 432.671c11.625 0 22.385 6.197 28.189 16.27l-105.206-182.377-95.892 166.04.023.039 172.886.028z"/>
                  <path fill="#569933" d="M1233.524 592.459a32.54 32.54 0 0 1 0 32.59l-86.378 149.661h191.71l.048-.087-105.38-182.164z"/>
                  <path fill="#008E8F" d="M353.146 449.099c5.807-10.091 16.567-16.287 28.204-16.287h172.909l.075-.119-95.833-165.968-105.355 182.374z"/>
                  <path fill="#4C9E69" d="M356.63 774.551l-86.392-149.445c-5.82-10.098-5.82-22.529 0-32.602l-105.319 182.15.063-.103H356.63z"/>
                  <path fill="#46A08D" d="M270.238 924.557l86.552-150.006-191.872.103L269.09 955.006c-4.647-9.685-4.276-21.085 1.148-30.449z"/>
                  <path fill="#9ABC23" d="M354.356 1102.584l104.109 180.13 95.794-165.884H381.276c-10.81.001-20.878-5.381-26.92-14.246z"/>
                  <path fill="#A3C836" d="M640.688 1266.542l-86.417-149.711h-.012l-95.844 165.994h210.489c-11.636 0-22.408-6.213-28.216-16.283z"/>
                  <path fill="#69B131" d="M863.024 1266.567c-5.806 10.057-16.576 16.258-28.189 16.258h210.487l-95.73-165.805h-.101l-86.467 149.547z"/>
                  <path fill="#529D60" d="M1233.5 924.727a32.58 32.58 0 0 1 .246 32.139l105.185-181.995-.051-.15h-191.772l-.159.263 86.551 149.743z"/>
                  <path fill="#9ABC23" d="M1122.411 1117.02h-172.82l95.768 165.83 104.923-181.592c-5.891 9.773-16.468 15.762-27.871 15.762zM751.851 1282.825H458.416l131.881 228.403c2.878 4.361 8.969 11.922 19.271 17.813l142.295-246.191-.012-.025z"/>
                  <path fill="#69B131" d="M1150.603 1100.725c-.098.199-.221.359-.321.533l-104.923 181.592.052.137h265.746c5.424-.62 14.061-2.467 23.215-7.957l-142.247-246.132-41.522 71.827z"/>
                  <path fill="#4C9E69" d="M270.238 957.187a29.23 29.23 0 0 1-1.148-2.181L164.883 774.71 32.508 1003.981c-2.384 5.305-5.202 13.919-5.028 24.724h284.069l-41.311-71.518z"/>
                  <path fill="#8EC024" d="M751.875 1282.825l-.013.025 142.381 246.383c8.783-4.966 14.541-11.21 17.851-15.664l133.228-230.744H751.875z"/>
                  <path fill="#C0D332" d="M609.568 1529.042c6.734 3.844 15.271 6.958 25.871 7.919h233.948c10.119-1.063 18.321-4.039 24.856-7.728l-142.38-246.383-142.295 246.192z"/>
                  <path fill="#67A149" d="M1338.93 774.871l-105.185 181.995c-.085.162-.159.321-.246.466l-41.337 71.529h284.118c.074-12.54-3.803-22.171-6.3-27.043l-131.05-226.947z"/>
                  <path fill="#569933" d="M1192.125 1028.898l142.247 246.132c7.398-4.454 15.121-11.316 21.692-21.854l112.731-195.237c5.472-10.647 7.425-20.552 7.485-29.077h-284.118l-.037.036z"/>
                  <path fill="#69B131" d="M311.549 1028.705H27.48c.148 9.175 2.458 19.926 9.068 31.556l-.05.03 112.373 194.664c6.263 9.434 13.54 15.712 20.57 19.865l142.183-246.009-.075-.106z"/>
                  <path fill="#A3C836" d="M354.356 1102.584a32.281 32.281 0 0 1-1.272-2.02l-41.459-71.754-142.184 246.01c10.958 6.46 21.323 7.782 26.499 8.005h262.475l.05-.11-104.109-180.131z"/>
                  <path fill="#008E8F" d="M751.851 266.579L609.593 20.42c-9.735 5.486-15.739 12.503-18.853 16.963L458.403 266.579h293.448z"/>
                  <path fill="#007D7F" d="M834.671 266.579h210.65L914.011 39.125c-2.681-4.167-8.92-12.367-19.928-18.584L751.875 266.579h82.796z"/>
                  <path fill="#00807A" d="M311.699 520.707l146.803-253.981-.099-.146H196.051c-4.606.158-15.194 1.354-26.548 8.14l142.159 245.988h.037z"/>
                  <path fill="#529D60" d="M1192.125 520.6l146.779 254.023 129.275-223.901-.026-.04s.1-.128.247-.367l1.558-2.67c2.42-4.657 6.497-14.304 6.362-27.068h-284.195v.023z"/>
                  <path fill="#006B6E" d="M751.875 266.579L894.083 20.542c-7.957-4.495-18.396-7.917-31.751-8.098H638.216c-11.884.617-21.31 3.87-28.623 7.977L751.851 266.58h.024z"/>
                  <path fill="#46A08D" d="M164.919 774.654l146.766-253.923-.023-.024H27.468c-.125 12.236 3.606 21.651 6.065 26.506l131.35 227.498.036-.057z"/>
                  <path fill="#079B90" d="M169.502 274.718c-8.055 4.802-16.481 12.431-23.385 24.532L36.548 488.979c-6.685 11.711-8.98 22.523-9.08 31.728h284.193L169.502 274.718z"/>
                  <path fill="#5AA581" d="M1476.32 520.577c-.086-9.151-2.336-19.869-8.908-31.467l-109.95-190.428c-6.856-11.851-15.172-19.366-23.141-24.128l-142.196 246.022h284.195z"/>
                  <path fill="#129B81" d="M1192.125 520.577l142.196-246.022c-10.783-6.465-20.901-7.851-25.846-8.114h-263.08l-.036.124 146.729 254.013h.037z"/>
                  <path fill="#008E8F" d="M1175.571 1299.454l-60.447 104.639-60.424-104.639v-.023z"/>
                  <path fill="#00807A" d="M994.46 1404.08l60.326-104.491 60.31 104.491z"/>
                  <path fill="#007D7F" d="M328.129 1299.454l60.461 104.639 60.411-104.639v-.023z"/>
                  <path fill="#129B81" d="M509.241 1404.08l-60.314-104.491-60.311 104.491z"/>
                  <path fill="#9ABC23" d="M328.129 249.936l60.461-104.64 60.411 104.64v.023z"/>
                  <path fill="#69B131" d="M509.253 145.302l-60.326 104.491-60.311-104.491z"/>
                  <path fill="#569933" d="M85.42 879.432L24.861 774.849l120.835-.189.025.015z"/>
                  <path fill="#529D60" d="M85.05 670.264l60.671 104.39-120.836.183z"/>
                  <path fill="#4C9E69" d="M1418.193 879.432l60.559-104.583-120.698-.189z"/>
                  <path fill="#46A08D" d="M1418.577 670.264l-60.498 104.39 120.65.183z"/>
                  <path fill="#007D7F" d="M1175.571 249.936l-60.447-104.64-60.424 104.64v.023z"/>
                  <path fill="#129B81" d="M994.46 145.302l60.326 104.491 60.31-104.491z"/>
                  <path opacity=".7" fill="#D2D2D3" d="M1046.779 950.724l-85.477 148.907 150.645-.406.016-.02s.096.014.271.014h1.862c3.177-.138 9.464-.951 16.11-4.893l-83.427-143.602z"/>
                  <path opacity=".7" fill="#DBDCDC" d="M1046.779 950.724l83.427 143.603c4.769-2.84 9.7-7.264 13.763-14.23l66.245-115.488c4.124-7.189 5.533-13.82 5.605-19.441l-166.048.369-2.992 5.187z"/>
                  <path opacity=".7" fill="#EEEEEF" d="M1049.771 945.536l166.048-.369c.102-7.611-2.259-13.337-3.619-15.993l-76.978-132.502-85.451 148.864z"/>
                  <path opacity=".7" fill="#D2D2D3" d="M458.614 950.724l85.479 148.907-150.646-.406-.013-.02s-.099.014-.259.014h-1.878c-3.176-.138-9.464-.951-16.099-4.893l83.416-143.602z"/>
                  <path opacity=".7" fill="#DBDCDC" d="M458.614 950.724l-83.416 143.603c-4.768-2.84-9.697-7.264-13.762-14.23l-66.254-115.488c-4.115-7.189-5.535-13.82-5.598-19.441l166.052.369 2.978 5.187z"/>
                  <path opacity=".7" fill="#EEEEEF" d="M455.636 945.536l-166.052-.369c-.099-7.611 2.248-13.337 3.62-15.993l76.965-132.502 85.467 148.864zM748.835 432.165l-171.696-.269 75.569-130.326.026-.007s.035-.086.122-.23l.927-1.626c1.718-2.678 5.547-7.729 12.28-11.514l82.772 143.972z"/>
                  <path opacity=".7" fill="#DBDCDC" d="M748.835 432.165l-82.771-143.972c4.843-2.712 11.144-4.765 19.211-4.82l133.127.252c8.289.028 14.738 2.11 19.643 4.861l-83.217 143.698-5.993-.019z"/>
                  <path opacity=".7" fill="#D2D2D3" d="M754.828 432.184l83.217-143.698c6.646 3.713 10.44 8.607 12.059 11.119l76.371 132.84-171.647-.261z"/>
                  <path opacity=".7" fill="#EEEEEF" d="M757.792 1117.799l171.697.265-75.557 130.323-.024.006s-.038.089-.125.235l-.926 1.618c-1.719 2.682-5.56 7.733-12.293 11.527l-82.772-143.974z"/>
                  <path opacity=".7" fill="#DBDCDC" d="M757.792 1117.799l82.772 143.975c-4.83 2.705-11.131 4.756-19.21 4.813l-133.128-.254c-8.29-.024-14.738-2.106-19.644-4.855l83.229-143.689 5.981.01z"/>
                  <path opacity=".7" fill="#D2D2D3" d="M751.813 1117.788l-83.229 143.689c-6.646-3.712-10.427-8.61-12.057-11.118l-76.373-132.844 171.659.273z"/>
                  <path fill="#3E3A39" d="M1172.581 588.737l-55.642-90.37c-4.744-8.259-13.502-13.351-22.966-13.351h-97.028c-4.536.125-22.646 2.078-33.861 24.543l-93.82 154.769-92.912-129.974c-12.021-12.492-31.518-12.492-43.549 0l-92.905 129.974-93.815-154.769c-11.207-22.465-29.342-24.418-33.864-24.543h-97.028c-9.464 0-18.223 5.092-22.967 13.351l-55.643 90.37a26.789 26.789 0 0 0 0 26.715l244.414 438.964a26.41 26.41 0 0 0 22.93 13.339h34.8c4.881-.326 15.852-2.643 26.586-15.695l73.064-156.652c8.955-10.888 23.458-10.888 32.404 0l73.074 156.652h.073c10.725 13.053 21.694 15.369 26.587 15.695h34.727a26.415 26.415 0 0 0 22.932-13.339l244.41-438.964a26.801 26.801 0 0 0-.001-26.715z"/>
                </svg>
              </svg>
            </g>
          </g>
        </g>
      </g>
      <g transform="translate(84, 18.17899544935546)">
        <g data-gra="path-name" fill="#6cb433" transform="scale(1)">
          <path d="M39.86-22.02L39.86-11.21Q39.86-9.15 39.34-7.51Q38.82-5.87 37.96-4.62Q37.10-3.38 35.96-2.50Q34.82-1.63 33.58-1.07Q32.34-0.52 31.06-0.26Q29.79 0 28.65 0L28.65 0L14.25 0Q12.59 0 10.63-0.58Q8.66-1.17 6.99-2.50Q5.31-3.84 4.19-5.97Q3.07-8.11 3.07-11.21L3.07-11.21L3.07-22.02Q3.07-25.09 4.19-27.22Q5.31-29.36 6.99-30.69Q8.66-32.03 10.63-32.61Q12.59-33.20 14.25-33.20L14.25-33.20L28.65-33.20Q31.72-33.20 33.87-32.09Q36.02-30.99 37.34-29.31Q38.66-27.64 39.26-25.67Q39.86-23.71 39.86-22.02L39.86-22.02ZM31.88-11.21L31.88-21.96Q31.88-23.62 31.05-24.41Q30.22-25.21 28.65-25.21L28.65-25.21L14.31-25.21Q12.71-25.21 11.88-24.40Q11.06-23.58 11.06-22.02L11.06-22.02L11.06-11.21Q11.06-9.64 11.88-8.81Q12.71-7.98 14.31-7.98L14.31-7.98L28.65-7.98Q30.28-7.98 31.08-8.81Q31.88-9.64 31.88-11.21L31.88-11.21Z" transform="translate(-3.0709512578616347, 47.231230345911946)"/>
        </g>
      </g>
      <g transform="translate(124, 18.17899544935546)">
        <g data-gra="path-name" fill="#6cb433" transform="scale(1)">
          <path d="M39.86-22.02L39.86-11.21Q39.86-9.15 39.34-7.51Q38.82-5.87 37.96-4.62Q37.10-3.38 35.96-2.50Q34.82-1.63 33.58-1.07Q32.34-0.52 31.06-0.26Q29.79 0 28.65 0L28.65 0L14.25 0Q12.59 0 10.63-0.58Q8.66-1.17 6.99-2.50Q5.31-3.84 4.19-5.97Q3.07-8.11 3.07-11.21L3.07-11.21L3.07-22.02Q3.07-25.09 4.19-27.22Q5.31-29.36 6.99-30.69Q8.66-32.03 10.63-32.61Q12.59-33.20 14.25-33.20L14.25-33.20L28.65-33.20Q31.72-33.20 33.87-32.09Q36.02-30.99 37.34-29.31Q38.66-27.64 39.26-25.67Q39.86-23.71 39.86-22.02L39.86-22.02ZM31.88-11.21L31.88-21.96Q31.88-23.62 31.05-24.41Q30.22-25.21 28.65-25.21L28.65-25.21L14.31-25.21Q12.71-25.21 11.88-24.40Q11.06-23.58 11.06-22.02L11.06-22.02L11.06-11.21Q11.06-9.64 11.88-8.81Q12.71-7.98 14.31-7.98L14.31-7.98L28.65-7.98Q30.28-7.98 31.08-8.81Q31.88-9.64 31.88-11.21L31.88-11.21Z" transform="translate(-3.0709512578616347, 47.231230345911946)"/>
        </g>
      </g>
      <g transform="translate(164, 18.17899544935546)">
        <g data-gra="path-name" fill="#6cb433" transform="scale(1)">
          <path d="M23.95-18.12L42.75 0L31.23 0L15.14-15.54Q13.79-16.77 13.88-18.61L13.88-18.61Q13.94-19.47 14.33-20.22Q14.71-20.97 15.39-21.50L15.39-21.50L29.97-33.26L42.75-33.26L23.95-18.12ZM11.85-47.23L11.85 0L3.87 0L3.87-47.23L11.85-47.23Z" transform="translate(-3.8693985849056602, 47.231230345911946)"/>
        </g>
      </g>
    </g>
    <g data-gra="path-slogan" fill-rule="" class="tp-slogan" fill="#6cb433" transform="matrix(1.019192, 0, 0, 1, 84.123985, 71.141991)" style="">
      <g transform="scale(1, 1)">
        <g transform="scale(1.4800000000000004)">
          <path d="M2.71-7.03L2.71 0L3.72 0L3.72-7.03L6.10-7.03L6.10-7.87L0.34-7.87L0.34-7.03ZM7.51-7.87L7.51 0L12.17 0L12.17-0.85L8.51-0.85L8.51-3.71L11.50-3.71L11.50-4.56L8.51-4.56L8.51-7.03L12.05-7.03L12.05-7.87ZM13.38-3.94C13.38-3.30 13.47-2.72 13.64-2.21C13.81-1.71 14.05-1.28 14.36-0.93C14.67-0.58 15.03-0.32 15.45-0.13C15.87 0.05 16.33 0.14 16.82 0.14C17.33 0.14 17.78 0.04 18.17-0.16C18.56-0.36 18.91-0.64 19.22-1.00L18.66-1.61C18.40-1.33 18.13-1.11 17.85-0.96C17.57-0.81 17.23-0.73 16.85-0.73C16.47-0.73 16.13-0.81 15.83-0.96C15.53-1.11 15.28-1.33 15.07-1.61C14.86-1.89 14.70-2.23 14.59-2.62C14.47-3.02 14.41-3.46 14.41-3.96C14.41-4.45 14.47-4.89 14.59-5.28C14.71-5.67 14.88-6.01 15.10-6.28C15.31-6.56 15.57-6.77 15.88-6.92C16.18-7.07 16.52-7.14 16.90-7.14C17.23-7.14 17.53-7.07 17.78-6.94C18.03-6.81 18.26-6.63 18.47-6.41L19.03-7.04C18.80-7.30 18.50-7.53 18.14-7.72C17.78-7.92 17.36-8.02 16.88-8.02C16.38-8.02 15.91-7.92 15.49-7.73C15.06-7.55 14.69-7.28 14.38-6.92C14.06-6.57 13.82-6.14 13.64-5.64C13.47-5.14 13.38-4.57 13.38-3.94ZM20.69-7.87L20.69 0L21.68 0L21.68-3.71L25.34-3.71L25.34 0L26.35 0L26.35-7.87L25.34-7.87L25.34-4.57L21.68-4.57L21.68-7.87ZM28.51-7.87L28.51 0L29.46 0L29.46-4.12C29.46-4.53 29.45-4.95 29.42-5.36C29.39-5.77 29.36-6.18 29.33-6.58L29.38-6.58L30.23-4.96L33.08 0L34.12 0L34.12-7.87L33.17-7.87L33.17-3.80C33.17-3.39 33.18-2.97 33.21-2.54C33.24-2.11 33.26-1.70 33.29-1.30L33.24-1.30L32.39-2.93L29.54-7.87ZM39.18 0.14C39.68 0.14 40.13 0.05 40.54-0.14C40.95-0.34 41.31-0.61 41.61-0.97C41.91-1.32 42.14-1.75 42.31-2.26C42.47-2.77 42.55-3.34 42.55-3.97C42.55-4.60 42.47-5.16 42.31-5.66C42.14-6.16 41.91-6.58 41.61-6.93C41.31-7.28 40.95-7.55 40.54-7.73C40.13-7.92 39.68-8.02 39.18-8.02C38.68-8.02 38.23-7.92 37.82-7.74C37.41-7.56 37.05-7.29 36.76-6.94C36.46-6.59 36.23-6.17 36.07-5.67C35.90-5.17 35.82-4.60 35.82-3.97C35.82-3.34 35.90-2.77 36.07-2.26C36.23-1.75 36.46-1.32 36.76-0.97C37.05-0.61 37.41-0.34 37.82-0.14C38.23 0.05 38.68 0.14 39.18 0.14ZM39.18-0.73C38.83-0.73 38.51-0.81 38.23-0.96C37.94-1.11 37.70-1.33 37.49-1.61C37.29-1.90 37.13-2.24 37.02-2.63C36.91-3.03 36.85-3.48 36.85-3.97C36.85-4.46 36.91-4.90 37.02-5.29C37.13-5.68 37.29-6.02 37.49-6.29C37.70-6.56 37.94-6.77 38.23-6.92C38.51-7.07 38.83-7.14 39.18-7.14C39.53-7.14 39.85-7.07 40.13-6.92C40.42-6.77 40.66-6.56 40.87-6.29C41.07-6.02 41.23-5.68 41.34-5.29C41.45-4.90 41.51-4.46 41.51-3.97C41.51-3.48 41.45-3.03 41.34-2.63C41.23-2.24 41.07-1.90 40.87-1.61C40.66-1.33 40.42-1.11 40.13-0.96C39.85-0.81 39.53-0.73 39.18-0.73ZM44.24-7.87L44.24 0L48.68 0L48.68-0.85L45.24-0.85L45.24-7.87ZM52.67 0.14C53.16 0.14 53.62 0.05 54.03-0.14C54.44-0.34 54.80-0.61 55.10-0.97C55.40-1.32 55.63-1.75 55.79-2.26C55.96-2.77 56.04-3.34 56.04-3.97C56.04-4.60 55.96-5.16 55.79-5.66C55.63-6.16 55.40-6.58 55.10-6.93C54.80-7.28 54.44-7.55 54.03-7.73C53.62-7.92 53.16-8.02 52.67-8.02C52.17-8.02 51.72-7.92 51.31-7.74C50.89-7.56 50.54-7.29 50.24-6.94C49.95-6.59 49.72-6.17 49.55-5.67C49.39-5.17 49.31-4.60 49.31-3.97C49.31-3.34 49.39-2.77 49.55-2.26C49.72-1.75 49.95-1.32 50.24-0.97C50.54-0.61 50.89-0.34 51.31-0.14C51.72 0.05 52.17 0.14 52.67 0.14ZM52.67-0.73C52.32-0.73 52.00-0.81 51.71-0.96C51.43-1.11 51.19-1.33 50.98-1.61C50.78-1.90 50.62-2.24 50.51-2.63C50.40-3.03 50.34-3.48 50.34-3.97C50.34-4.46 50.40-4.90 50.51-5.29C50.62-5.68 50.78-6.02 50.98-6.29C51.19-6.56 51.43-6.77 51.71-6.92C52.00-7.07 52.32-7.14 52.67-7.14C53.02-7.14 53.34-7.07 53.62-6.92C53.91-6.77 54.15-6.56 54.35-6.29C54.56-6.02 54.72-5.68 54.83-5.29C54.94-4.90 55.00-4.46 55.00-3.97C55.00-3.48 54.94-3.03 54.83-2.63C54.72-2.24 54.56-1.90 54.35-1.61C54.15-1.33 53.91-1.11 53.62-0.96C53.34-0.81 53.02-0.73 52.67-0.73ZM57.28-3.94C57.28-3.30 57.36-2.72 57.54-2.21C57.72-1.71 57.96-1.28 58.27-0.93C58.58-0.58 58.96-0.32 59.39-0.13C59.82 0.05 60.30 0.14 60.82 0.14C61.34 0.14 61.82 0.06 62.24-0.11C62.66-0.29 63.00-0.50 63.25-0.77L63.25-4.08L60.67-4.08L60.67-3.25L62.34-3.25L62.34-1.20C62.18-1.06 61.97-0.94 61.72-0.86C61.47-0.77 61.20-0.73 60.92-0.73C60.50-0.73 60.13-0.81 59.80-0.96C59.48-1.11 59.21-1.33 58.99-1.61C58.77-1.89 58.60-2.23 58.48-2.62C58.37-3.02 58.31-3.46 58.31-3.96C58.31-4.45 58.37-4.89 58.49-5.28C58.62-5.67 58.79-6.01 59.02-6.28C59.24-6.56 59.51-6.77 59.83-6.92C60.15-7.07 60.51-7.14 60.91-7.14C61.31-7.14 61.64-7.07 61.90-6.93C62.16-6.79 62.39-6.62 62.59-6.41L63.16-7.04C62.92-7.28 62.63-7.51 62.26-7.71C61.90-7.91 61.44-8.02 60.90-8.02C60.37-8.02 59.89-7.92 59.45-7.73C59.01-7.55 58.63-7.28 58.30-6.92C57.98-6.57 57.73-6.14 57.55-5.64C57.37-5.14 57.28-4.57 57.28-3.94ZM65.14-7.87L65.14 0L66.13 0L66.13-7.87ZM68.29-7.87L68.29 0L72.95 0L72.95-0.85L69.29-0.85L69.29-3.71L72.28-3.71L72.28-4.56L69.29-4.56L69.29-7.03L72.83-7.03L72.83-7.87ZM74.64-1.72L74.04-1.02C74.38-0.66 74.79-0.38 75.26-0.17C75.74 0.04 76.25 0.14 76.80 0.14C77.22 0.14 77.59 0.09 77.92-0.03C78.24-0.15 78.52-0.31 78.76-0.51C78.99-0.71 79.17-0.95 79.29-1.22C79.41-1.50 79.48-1.79 79.48-2.10C79.48-2.39 79.43-2.64 79.35-2.86C79.27-3.08 79.15-3.27 79.01-3.44C78.86-3.60 78.69-3.75 78.49-3.87C78.29-3.99 78.08-4.10 77.86-4.20L76.74-4.68C76.58-4.74 76.42-4.81 76.27-4.89C76.12-4.97 75.98-5.05 75.85-5.15C75.72-5.25 75.62-5.37 75.55-5.50C75.47-5.63 75.43-5.80 75.43-5.99C75.43-6.35 75.57-6.63 75.83-6.83C76.10-7.04 76.46-7.14 76.90-7.14C77.26-7.14 77.59-7.07 77.89-6.94C78.18-6.81 78.44-6.63 78.68-6.40L79.22-7.04C78.94-7.33 78.60-7.57 78.20-7.75C77.80-7.93 77.37-8.02 76.90-8.02C76.54-8.02 76.21-7.96 75.91-7.86C75.61-7.76 75.35-7.61 75.13-7.42C74.91-7.23 74.73-7.01 74.61-6.76C74.49-6.50 74.42-6.22 74.42-5.93C74.42-5.64 74.47-5.39 74.57-5.17C74.66-4.95 74.79-4.76 74.94-4.60C75.09-4.44 75.26-4.30 75.46-4.19C75.65-4.08 75.84-3.98 76.02-3.90L77.15-3.41C77.33-3.32 77.50-3.24 77.66-3.16C77.82-3.08 77.96-2.99 78.08-2.89C78.19-2.79 78.29-2.67 78.35-2.53C78.42-2.39 78.46-2.22 78.46-2.02C78.46-1.63 78.31-1.32 78.02-1.09C77.74-0.85 77.33-0.73 76.81-0.73C76.40-0.73 76.01-0.82 75.63-1.00C75.25-1.18 74.92-1.42 74.64-1.72Z" transform="translate(-0.336, 8.016)"/>
        </g>
      </g>
    </g>
  </g>
</svg>